<mxfile host="app.diagrams.net" modified="2021-01-11T09:39:23.453Z" agent="5.0 (Windows NT 10.0; Win64; x64) AppleWebKit/537.36 (KHTML, like Gecko) Chrome/75.0.3770.142 Safari/537.36" etag="yhlgWe8cPCCmpZhQyjXJ" version="14.1.9" type="github">
  <diagram id="zvh3FcUzaM4mx6oIQ8m3" name="Page-1">
    <mxGraphModel dx="1650" dy="387" grid="1" gridSize="10" guides="1" tooltips="1" connect="1" arrows="1" fold="1" page="1" pageScale="1" pageWidth="827" pageHeight="1169" math="0" shadow="0">
      <root>
        <mxCell id="0" />
        <mxCell id="1" parent="0" />
        <mxCell id="1pkuPKnKsSqJGwFw9siI-30" value="" style="rounded=0;whiteSpace=wrap;html=1;" vertex="1" parent="1">
          <mxGeometry x="-70" y="620" width="180" height="30" as="geometry" />
        </mxCell>
        <mxCell id="1pkuPKnKsSqJGwFw9siI-31" value="" style="shape=process;whiteSpace=wrap;html=1;backgroundOutline=1;" vertex="1" parent="1">
          <mxGeometry x="100" y="730" width="120" height="60" as="geometry" />
        </mxCell>
        <mxCell id="1pkuPKnKsSqJGwFw9siI-34" style="edgeStyle=none;rounded=0;orthogonalLoop=1;jettySize=auto;html=1;exitX=1;exitY=0.5;exitDx=0;exitDy=0;entryX=0;entryY=0.5;entryDx=0;entryDy=0;strokeWidth=4;endArrow=classic;endFill=1;" edge="1" parent="1" source="1pkuPKnKsSqJGwFw9siI-32" target="1pkuPKnKsSqJGwFw9siI-31">
          <mxGeometry relative="1" as="geometry" />
        </mxCell>
        <mxCell id="1pkuPKnKsSqJGwFw9siI-32" value="" style="ellipse;whiteSpace=wrap;html=1;aspect=fixed;" vertex="1" parent="1">
          <mxGeometry x="-30" y="750" width="80" height="80" as="geometry" />
        </mxCell>
        <mxCell id="1pkuPKnKsSqJGwFw9siI-33" value="" style="shape=hexagon;perimeter=hexagonPerimeter2;whiteSpace=wrap;html=1;fixedSize=1;" vertex="1" parent="1">
          <mxGeometry x="310" y="730" width="120" height="70" as="geometry" />
        </mxCell>
        <mxCell id="1pkuPKnKsSqJGwFw9siI-35" value="" style="shape=table;html=1;whiteSpace=wrap;startSize=0;container=1;collapsible=0;childLayout=tableLayout;" vertex="1" parent="1">
          <mxGeometry x="290" y="770" width="120" height="80" as="geometry" />
        </mxCell>
        <mxCell id="1pkuPKnKsSqJGwFw9siI-36" value="" style="shape=partialRectangle;html=1;whiteSpace=wrap;collapsible=0;dropTarget=0;pointerEvents=0;fillColor=none;top=0;left=0;bottom=0;right=0;points=[[0,0.5],[1,0.5]];portConstraint=eastwest;" vertex="1" parent="1pkuPKnKsSqJGwFw9siI-35">
          <mxGeometry width="120" height="40" as="geometry" />
        </mxCell>
        <mxCell id="1pkuPKnKsSqJGwFw9siI-37" value="" style="shape=partialRectangle;html=1;whiteSpace=wrap;connectable=0;overflow=hidden;fillColor=none;top=0;left=0;bottom=0;right=0;" vertex="1" parent="1pkuPKnKsSqJGwFw9siI-36">
          <mxGeometry width="60" height="40" as="geometry" />
        </mxCell>
        <mxCell id="1pkuPKnKsSqJGwFw9siI-40" style="shape=partialRectangle;html=1;whiteSpace=wrap;connectable=0;overflow=hidden;fillColor=none;top=0;left=0;bottom=0;right=0;" vertex="1" parent="1pkuPKnKsSqJGwFw9siI-36">
          <mxGeometry x="60" width="60" height="40" as="geometry" />
        </mxCell>
        <mxCell id="1pkuPKnKsSqJGwFw9siI-38" value="" style="shape=partialRectangle;html=1;whiteSpace=wrap;collapsible=0;dropTarget=0;pointerEvents=0;fillColor=none;top=0;left=0;bottom=0;right=0;points=[[0,0.5],[1,0.5]];portConstraint=eastwest;" vertex="1" parent="1pkuPKnKsSqJGwFw9siI-35">
          <mxGeometry y="40" width="120" height="40" as="geometry" />
        </mxCell>
        <mxCell id="1pkuPKnKsSqJGwFw9siI-39" value="" style="shape=partialRectangle;html=1;whiteSpace=wrap;connectable=0;overflow=hidden;fillColor=none;top=0;left=0;bottom=0;right=0;" vertex="1" parent="1pkuPKnKsSqJGwFw9siI-38">
          <mxGeometry width="60" height="40" as="geometry" />
        </mxCell>
        <mxCell id="1pkuPKnKsSqJGwFw9siI-41" style="shape=partialRectangle;html=1;whiteSpace=wrap;connectable=0;overflow=hidden;fillColor=none;top=0;left=0;bottom=0;right=0;" vertex="1" parent="1pkuPKnKsSqJGwFw9siI-38">
          <mxGeometry x="60" width="60" height="40" as="geometry" />
        </mxCell>
        <mxCell id="1pkuPKnKsSqJGwFw9siI-42" value="" style="shape=table;html=1;whiteSpace=wrap;startSize=0;container=1;collapsible=0;childLayout=tableLayout;" vertex="1" parent="1">
          <mxGeometry x="-10" y="880" width="250" height="180" as="geometry" />
        </mxCell>
        <mxCell id="1pkuPKnKsSqJGwFw9siI-43" value="" style="shape=partialRectangle;html=1;whiteSpace=wrap;collapsible=0;dropTarget=0;pointerEvents=0;fillColor=none;top=0;left=0;bottom=0;right=0;points=[[0,0.5],[1,0.5]];portConstraint=eastwest;" vertex="1" parent="1pkuPKnKsSqJGwFw9siI-42">
          <mxGeometry width="250" height="140" as="geometry" />
        </mxCell>
        <mxCell id="1pkuPKnKsSqJGwFw9siI-44" value="" style="shape=partialRectangle;html=1;whiteSpace=wrap;connectable=0;overflow=hidden;fillColor=none;top=0;left=0;bottom=0;right=0;" vertex="1" parent="1pkuPKnKsSqJGwFw9siI-43">
          <mxGeometry width="60" height="140" as="geometry" />
        </mxCell>
        <mxCell id="1pkuPKnKsSqJGwFw9siI-45" value="" style="shape=partialRectangle;html=1;whiteSpace=wrap;connectable=0;overflow=hidden;fillColor=none;top=0;left=0;bottom=0;right=0;" vertex="1" parent="1pkuPKnKsSqJGwFw9siI-43">
          <mxGeometry x="60" width="190" height="140" as="geometry" />
        </mxCell>
        <mxCell id="1pkuPKnKsSqJGwFw9siI-46" value="" style="shape=partialRectangle;html=1;whiteSpace=wrap;collapsible=0;dropTarget=0;pointerEvents=0;fillColor=none;top=0;left=0;bottom=0;right=0;points=[[0,0.5],[1,0.5]];portConstraint=eastwest;" vertex="1" parent="1pkuPKnKsSqJGwFw9siI-42">
          <mxGeometry y="140" width="250" height="40" as="geometry" />
        </mxCell>
        <mxCell id="1pkuPKnKsSqJGwFw9siI-47" value="" style="shape=partialRectangle;html=1;whiteSpace=wrap;connectable=0;overflow=hidden;fillColor=none;top=0;left=0;bottom=0;right=0;" vertex="1" parent="1pkuPKnKsSqJGwFw9siI-46">
          <mxGeometry width="60" height="40" as="geometry" />
        </mxCell>
        <mxCell id="1pkuPKnKsSqJGwFw9siI-48" value="" style="shape=partialRectangle;html=1;whiteSpace=wrap;connectable=0;overflow=hidden;fillColor=none;top=0;left=0;bottom=0;right=0;" vertex="1" parent="1pkuPKnKsSqJGwFw9siI-46">
          <mxGeometry x="60" width="190" height="40" as="geometry" />
        </mxCell>
      </root>
    </mxGraphModel>
  </diagram>
</mxfile>
